%FSLAX34Y34*%
G04 Gerber Fmt 3.4, Leading zero omitted, Abs format*
G04 (created by PCBNEW (2014-02-26 BZR 4721)-product) date Monday, 21 March 2016 14:49:11*
%MOIN*%
G01*
G70*
G90*
G04 APERTURE LIST*
%ADD10C,0.005906*%
%ADD11R,0.118100X0.063000*%
%ADD12R,0.051200X0.059000*%
%ADD13R,0.063000X0.102400*%
%ADD14R,0.059000X0.051200*%
%ADD15R,0.060000X0.060000*%
%ADD16C,0.060000*%
%ADD17R,0.023600X0.086600*%
%ADD18C,0.137795*%
G04 APERTURE END LIST*
G54D10*
G54D11*
X46928Y-42125D03*
X45196Y-42125D03*
X50078Y-44094D03*
X48346Y-44094D03*
X53621Y-44094D03*
X51889Y-44094D03*
X50275Y-36220D03*
X48543Y-36220D03*
G54D12*
X54508Y-41338D03*
X53758Y-41338D03*
G54D11*
X59567Y-32677D03*
X61299Y-32677D03*
G54D13*
X62007Y-42047D03*
X62007Y-40629D03*
X62007Y-39094D03*
X62007Y-37676D03*
G54D14*
X63779Y-41123D03*
X63779Y-40373D03*
X63779Y-39351D03*
X63779Y-38601D03*
G54D15*
X65944Y-38763D03*
G54D16*
X65944Y-39763D03*
X65944Y-40763D03*
G54D15*
X56889Y-46850D03*
X64960Y-46850D03*
X64370Y-43307D03*
X51968Y-32677D03*
G54D14*
X51968Y-37186D03*
X51968Y-36436D03*
X57480Y-43522D03*
X57480Y-44272D03*
X61023Y-43522D03*
X61023Y-44272D03*
G54D12*
X48997Y-42125D03*
X48247Y-42125D03*
X50965Y-42125D03*
X50215Y-42125D03*
X52934Y-42125D03*
X52184Y-42125D03*
X55493Y-45866D03*
X54743Y-45866D03*
G54D14*
X53937Y-36792D03*
X53937Y-36042D03*
G54D12*
X49587Y-45866D03*
X48837Y-45866D03*
X51752Y-45866D03*
X51002Y-45866D03*
G54D14*
X56102Y-41947D03*
X56102Y-42697D03*
G54D12*
X58249Y-42322D03*
X57499Y-42322D03*
X59823Y-41732D03*
X59073Y-41732D03*
X59823Y-43110D03*
X59073Y-43110D03*
X53758Y-32677D03*
X54508Y-32677D03*
G54D15*
X59448Y-46472D03*
G54D16*
X59448Y-45472D03*
X59448Y-44472D03*
G54D15*
X62204Y-44275D03*
G54D16*
X62204Y-45275D03*
X62204Y-46275D03*
G54D15*
X53952Y-34448D03*
G54D16*
X52952Y-34448D03*
X51952Y-34448D03*
G54D15*
X58251Y-36614D03*
G54D16*
X59251Y-36614D03*
X60251Y-36614D03*
G54D15*
X58283Y-34448D03*
G54D16*
X57283Y-34448D03*
X56283Y-34448D03*
G54D15*
X56192Y-32677D03*
G54D16*
X57192Y-32677D03*
G54D17*
X49484Y-40589D03*
X49984Y-40589D03*
X50484Y-40589D03*
X50984Y-40589D03*
X51484Y-40589D03*
X51984Y-40589D03*
X52484Y-40589D03*
X52484Y-38543D03*
X51984Y-38543D03*
X51484Y-38543D03*
X50984Y-38543D03*
X50484Y-38543D03*
X49984Y-38543D03*
X49484Y-38543D03*
X55783Y-40589D03*
X56283Y-40589D03*
X56783Y-40589D03*
X57283Y-40589D03*
X57783Y-40589D03*
X58283Y-40589D03*
X58783Y-40589D03*
X58783Y-38543D03*
X58283Y-38543D03*
X57783Y-38543D03*
X57283Y-38543D03*
X56783Y-38543D03*
X56283Y-38543D03*
X55783Y-38543D03*
G54D18*
X44472Y-34444D03*
X44669Y-46255D03*
X64748Y-34444D03*
M02*
