M48
;DRILL file {Pcbnew (2014-02-26 BZR 4721)-product} date Monday, 21 March 2016 14:49:16
;FORMAT={2:4/ absolute / inch / suppress leading zeros}
FMAT,2
INCH,TZ
T1C0.025
T2C0.040
T3C0.118
%
G90
G05
M72
T1
X47047Y-37008
X47441Y-44094
X53150Y-45669
X54331Y-38976
X54724Y-37205
X54724Y-39961
X54724Y-42323
X55906Y-37205
X56693Y-36024
X56693Y-37205
X56693Y-41535
X56693Y-42520
X57283Y-41535
X57480Y-37402
X57874Y-41535
X61024Y-39961
T2
X51953Y-34449
X51969Y-32677
X52953Y-34449
X53953Y-34449
X56193Y-32677
X56283Y-34449
X56890Y-46850
X57193Y-32677
X57283Y-34449
X58252Y-36614
X58283Y-34449
X59252Y-36614
X59449Y-44472
X59449Y-45472
X59449Y-46472
X60252Y-36614
X62205Y-44276
X62205Y-45276
X62205Y-46276
X64370Y-43307
X64961Y-46850
X65945Y-38764
X65945Y-39764
X65945Y-40764
T3
X44472Y-34445
X44669Y-46256
X64748Y-34445
T0
M30
